<?xml version="1.0" standalone="no"?>
<!DOCTYPE svg PUBLIC "-//W3C//DTD SVG 20010904//EN"
 "http://www.w3.org/TR/2001/REC-SVG-20010904/DTD/svg10.dtd">
<svg version="1.0" xmlns="http://www.w3.org/2000/svg"
 width="64.000000pt" height="64.000000pt" viewBox="0 0 64.000000 64.000000"
 preserveAspectRatio="xMidYMid meet">

<g transform="translate(0.000000,64.000000) scale(0.100000,-0.100000)"
fill="#de3139" stroke="none">
<path d="M526 605 c-20 -19 -36 -40 -36 -48 0 -7 -27 -39 -60 -72 -55 -55 -61
-58 -85 -47 -62 28 -108 8 -146 -65 -13 -24 -26 -32 -58 -38 -85 -14 -148 -85
-136 -155 13 -72 100 -161 171 -175 71 -13 145 50 159 136 6 32 14 45 38 58
73 38 93 84 65 146 -11 24 -8 30 47 85 33 33 65 60 72 60 18 0 83 68 83 86 0
8 -11 26 -25 39 -32 33 -47 31 -89 -10z m88 -7 c9 -15 4 -25 -31 -59 -27 -28
-47 -40 -57 -36 -33 13 -30 38 10 78 41 42 60 46 78 17z m-106 -107 c2 -6 -34
-50 -80 -97 -81 -83 -84 -85 -101 -66 -16 18 -14 22 68 101 80 78 103 91 113
62z m-164 -72 c13 -12 -29 -56 -73 -77 -19 -10 -39 -25 -45 -34 -16 -26 4 -71
37 -82 34 -12 57 -1 76 40 15 32 60 84 73 84 5 0 13 -12 19 -27 14 -39 -6 -80
-50 -101 -37 -18 -48 -35 -76 -115 -27 -76 -97 -107 -163 -73 -31 17 -94 81
-111 113 -31 61 3 132 76 158 79 27 97 39 114 74 9 18 27 40 40 47 24 14 66
10 83 -7z m-30 -105 c34 -34 9 -78 -41 -72 -22 2 -29 9 -31 31 -6 50 38 75 72
41z"/>
<path d="M150 155 c29 -30 56 -52 59 -50 6 7 -90 105 -103 105 -6 0 14 -25 44
-55z"/>
</g>
</svg>
