<?xml version="1.0" standalone="no"?>
<!DOCTYPE svg PUBLIC "-//W3C//DTD SVG 20010904//EN"
 "http://www.w3.org/TR/2001/REC-SVG-20010904/DTD/svg10.dtd">
<svg version="1.0" xmlns="http://www.w3.org/2000/svg"
 width="64.000000pt" height="64.000000pt" viewBox="0 0 64.000000 64.000000"
 preserveAspectRatio="xMidYMid meet">

<g transform="translate(0.000000,64.000000) scale(0.100000,-0.100000)"
fill="#de3139" stroke="none">
<path d="M570 601 c0 -5 8 -7 19 -4 33 9 33 -16 -1 -46 -37 -34 -82 -41 -93
-14 -4 12 1 24 15 35 17 14 19 18 6 18 -9 0 -26 -17 -40 -37 -13 -21 -62 -73
-109 -115 -67 -61 -86 -74 -91 -61 -4 9 1 27 9 40 18 26 12 43 -14 43 -25 0
-58 -34 -82 -85 -18 -38 -27 -45 -77 -62 -30 -10 -57 -23 -59 -29 -2 -6 26 0
63 15 62 24 68 30 90 76 23 47 59 83 71 71 3 -3 0 -12 -7 -21 -7 -8 -10 -29
-7 -47 4 -28 -1 -39 -31 -70 -34 -36 -35 -38 -18 -57 10 -11 30 -20 45 -20 14
1 42 -3 61 -8 l35 -9 -41 -22 c-34 -17 -43 -28 -49 -58 -9 -50 -54 -94 -95
-94 -43 0 -100 33 -129 76 -19 28 -23 43 -19 85 4 37 2 47 -6 39 -20 -20 -11
-96 15 -134 73 -107 227 -97 245 15 6 34 13 43 45 60 27 13 39 26 39 40 0 17
-5 20 -23 16 -25 -7 -51 5 -46 21 9 22 234 246 249 247 10 1 37 18 60 38 36
31 41 39 30 52 -13 16 -60 21 -60 6z m-75 -90 c7 -12 -12 -24 -25 -16 -11 7
-4 25 10 25 5 0 11 -4 15 -9z m-30 -30 c7 -12 -12 -24 -25 -16 -11 7 -4 25 10
25 5 0 11 -4 15 -9z m-30 -32 c10 -15 -1 -23 -20 -15 -9 3 -13 10 -10 16 8 13
22 13 30 -1z m-30 -30 c12 -19 -5 -23 -22 -6 -16 16 -16 17 -1 17 9 0 20 -5
23 -11z m-28 -45 c-9 -10 -38 16 -31 28 4 6 13 4 22 -6 9 -8 13 -19 9 -22z
m-30 -9 c3 -9 3 -19 -1 -22 -8 -9 -37 18 -30 28 8 14 24 11 31 -6z m-30 -30
c3 -9 3 -19 -1 -22 -8 -9 -37 18 -30 28 8 14 24 11 31 -6z m-28 -29 c9 -10 9
-16 1 -21 -13 -8 -42 14 -34 26 8 13 20 11 33 -5z m-30 -30 c8 -10 8 -16 -3
-25 -10 -9 -16 -8 -26 3 -12 15 -6 36 9 36 5 0 14 -6 20 -14z"/>
<path d="M133 224 c-4 -10 6 -27 26 -47 29 -30 32 -31 48 -14 13 13 15 20 5
29 -9 9 -12 8 -12 -5 0 -23 -12 -21 -38 6 -23 25 -20 40 6 30 10 -4 13 -2 8 5
-10 17 -36 15 -43 -4z"/>
<path d="M74 169 c-9 -16 29 -63 55 -67 32 -5 38 25 11 54 -25 25 -54 31 -66
13z m55 -23 c15 -16 19 -26 11 -31 -13 -8 -50 22 -50 42 0 20 14 16 39 -11z"/>
</g>
</svg>
