<?xml version="1.0" standalone="no"?>
<!DOCTYPE svg PUBLIC "-//W3C//DTD SVG 20010904//EN"
 "http://www.w3.org/TR/2001/REC-SVG-20010904/DTD/svg10.dtd">
<svg version="1.0" xmlns="http://www.w3.org/2000/svg"
 width="64.000000pt" height="64.000000pt" viewBox="0 0 64.000000 64.000000"
 preserveAspectRatio="xMidYMid meet">

<g transform="translate(0.000000,64.000000) scale(0.100000,-0.100000)"
fill="#de3139" stroke="none">
<path d="M117 633 c-4 -3 -7 -106 -7 -229 0 -193 -2 -226 -17 -253 -17 -30
-17 -32 -1 -62 10 -17 18 -42 18 -55 0 -14 7 -27 15 -30 20 -8 45 13 45 38 0
10 7 30 16 43 23 35 11 74 -26 88 l-30 11 0 218 c0 139 4 218 10 218 6 0 10
-77 10 -210 0 -133 4 -210 10 -210 11 0 15 396 4 424 -6 16 -35 22 -47 9z m53
-488 c26 -32 -13 -81 -47 -59 -23 14 -28 41 -13 59 16 19 44 19 60 0z m-20
-105 c0 -11 -4 -20 -10 -20 -5 0 -10 9 -10 20 0 11 5 20 10 20 6 0 10 -9 10
-20z"/>
<path d="M237 633 c-11 -11 -8 -193 3 -193 6 0 10 37 10 90 0 53 4 90 10 90 6
0 10 -40 10 -99 0 -97 0 -99 -25 -105 -39 -10 -53 -50 -32 -89 13 -25 17 -64
19 -177 3 -133 5 -145 22 -148 10 -2 22 2 27 10 5 7 9 75 9 150 0 111 3 142
18 167 16 30 16 32 0 62 -14 23 -18 53 -18 124 0 51 -3 100 -6 109 -6 16 -35
22 -47 9z m53 -248 c26 -32 -13 -81 -47 -59 -23 14 -28 41 -13 59 16 19 44 19
60 0z m-20 -225 c0 -87 -4 -140 -10 -140 -6 0 -10 53 -10 140 0 87 4 140 10
140 6 0 10 -53 10 -140z"/>
<path d="M356 625 c-3 -9 -6 -86 -6 -170 0 -128 -3 -159 -17 -184 -17 -30 -17
-32 0 -62 12 -22 17 -53 17 -107 0 -85 8 -106 36 -100 17 3 19 14 22 88 1 56
8 96 19 117 21 39 7 79 -32 89 l-25 6 0 159 c0 99 4 159 10 159 6 0 10 -57 10
-150 0 -96 4 -150 10 -150 7 0 10 55 8 158 -3 151 -4 157 -24 160 -13 2 -24
-4 -28 -13z m54 -360 c26 -32 -13 -81 -47 -59 -23 14 -28 41 -13 59 16 19 44
19 60 0z m-20 -165 c0 -47 -4 -80 -10 -80 -6 0 -10 33 -10 80 0 47 4 80 10 80
6 0 10 -33 10 -80z"/>
<path d="M475 618 c-3 -13 -14 -38 -23 -56 -16 -31 -16 -35 1 -63 15 -27 17
-60 17 -254 0 -185 3 -225 15 -235 8 -7 22 -10 30 -6 13 5 15 39 15 231 0 143
-4 225 -10 225 -6 0 -10 -80 -10 -220 0 -140 -4 -220 -10 -220 -6 0 -10 81
-10 224 l0 224 25 6 c39 10 53 49 32 89 -9 18 -17 41 -19 52 -5 30 -45 32 -53
3z m35 -13 c0 -8 -4 -15 -10 -15 -5 0 -10 7 -10 15 0 8 5 15 10 15 6 0 10 -7
10 -15z m20 -50 c26 -32 -13 -81 -47 -59 -23 14 -28 41 -13 59 16 19 44 19 60
0z"/>
</g>
</svg>
