<?xml version="1.0" standalone="no"?>
<!DOCTYPE svg PUBLIC "-//W3C//DTD SVG 20010904//EN"
 "http://www.w3.org/TR/2001/REC-SVG-20010904/DTD/svg10.dtd">
<svg version="1.0" xmlns="http://www.w3.org/2000/svg"
 width="64.000000pt" height="64.000000pt" viewBox="0 0 64.000000 64.000000"
 preserveAspectRatio="xMidYMid meet">

<g transform="translate(0.000000,64.000000) scale(0.100000,-0.100000)"
fill="#FFFFFF" stroke="none">
<path d="M215 634 c-73 -19 -115 -38 -140 -64 -27 -29 -28 -31 -22 -117 11
-160 65 -292 157 -384 88 -88 124 -90 213 -10 61 57 106 134 136 236 25 84 41
212 31 240 -12 31 -51 63 -100 81 -45 16 -234 28 -275 18z m15 -83 c0 -41 -5
-62 -16 -72 -46 -38 -57 -122 -24 -177 59 -96 201 -96 260 0 33 55 22 139 -24
177 -11 10 -16 31 -16 72 l0 59 28 -6 c52 -12 114 -47 124 -70 15 -32 -5 -169
-37 -264 -40 -117 -98 -195 -176 -236 -26 -13 -33 -13 -64 2 -84 40 -164 173
-196 327 -34 164 -24 194 71 227 30 11 58 19 63 20 4 0 7 -26 7 -59z m80 20
c0 -34 -4 -40 -30 -50 l-30 -10 0 50 c0 48 1 49 30 49 28 0 30 -2 30 -39z m80
-10 l0 -50 -30 10 c-26 10 -30 16 -30 50 0 37 2 39 30 39 29 0 30 -1 30 -49z
m-80 -186 c0 -69 -2 -125 -4 -125 -3 0 -16 4 -30 10 -26 9 -26 11 -26 114 0
89 3 107 18 115 39 23 42 16 42 -114z m61 115 c17 -10 19 -22 19 -116 0 -103
0 -105 -26 -114 -14 -6 -27 -10 -30 -10 -2 0 -4 56 -4 125 0 129 2 135 41 115z
m-141 -112 c0 -77 -1 -81 -17 -66 -19 20 -22 92 -4 126 6 12 14 22 16 22 3 0
5 -37 5 -82z m209 35 c12 -41 5 -87 -15 -104 -12 -10 -14 2 -14 70 0 86 11 99
29 34z"/>
<path d="M0 150 c0 -5 20 -10 45 -10 25 0 45 5 45 10 0 6 -20 10 -45 10 -25 0
-45 -4 -45 -10z"/>
<path d="M550 150 c0 -5 20 -10 45 -10 25 0 45 5 45 10 0 6 -20 10 -45 10 -25
0 -45 -4 -45 -10z"/>
<path d="M42 49 c-39 -29 -53 -49 -34 -49 11 0 88 55 97 69 13 22 -22 10 -63
-20z"/>
<path d="M530 75 c0 -7 92 -75 101 -75 20 0 6 20 -33 49 -37 28 -68 39 -68 26z"/>
</g>
</svg>
