<?xml version="1.0" standalone="no"?>
<!DOCTYPE svg PUBLIC "-//W3C//DTD SVG 20010904//EN"
 "http://www.w3.org/TR/2001/REC-SVG-20010904/DTD/svg10.dtd">
<svg version="1.0" xmlns="http://www.w3.org/2000/svg"
 width="64.000000pt" height="64.000000pt" viewBox="0 0 64.000000 64.000000"
 preserveAspectRatio="xMidYMid meet">

<g transform="translate(0.000000,64.000000) scale(0.100000,-0.100000)"
fill="#de3139" stroke="none">
<path d="M90 458 c-52 -93 -52 -183 0 -276 17 -28 37 -52 46 -52 11 0 9 8 -10
33 -72 95 -73 219 -2 312 21 26 23 35 12 35 -9 0 -29 -24 -46 -52z"/>
<path d="M514 478 c32 -43 56 -109 56 -158 0 -49 -24 -115 -56 -158 -22 -28
-23 -33 -9 -30 10 1 32 28 49 58 27 48 31 64 31 130 0 66 -4 82 -31 130 -17
30 -39 57 -49 58 -14 3 -13 -2 9 -30z"/>
<path d="M156 451 c-58 -64 -58 -192 -1 -258 33 -39 41 -23 11 22 -46 67 -46
142 -1 209 14 20 25 39 25 41 0 11 -18 3 -34 -14z"/>
<path d="M450 465 c0 -2 11 -21 25 -41 45 -67 45 -142 -1 -209 -30 -45 -22
-61 11 -22 57 66 57 194 -1 258 -16 17 -34 25 -34 14z"/>
<path d="M190 390 c-11 -21 -20 -53 -20 -70 0 -34 35 -110 50 -110 13 0 13 0
-10 45 -11 22 -20 51 -20 65 0 14 9 43 20 65 23 45 23 45 10 45 -5 0 -19 -18
-30 -40z"/>
<path d="M410 427 c0 -1 9 -20 20 -42 11 -22 20 -51 20 -65 0 -14 -9 -43 -20
-65 -23 -45 -23 -45 -10 -45 15 0 50 76 50 110 0 34 -35 110 -50 110 -6 0 -10
-1 -10 -3z"/>
<path d="M259 381 c-39 -40 -39 -82 0 -122 20 -20 39 -29 61 -29 43 0 90 47
90 90 0 43 -47 90 -90 90 -22 0 -41 -9 -61 -29z m106 -16 c14 -13 25 -33 25
-45 0 -27 -43 -70 -70 -70 -27 0 -70 43 -70 70 0 27 43 70 70 70 12 0 32 -11
45 -25z"/>
</g>
</svg>
