<?xml version="1.0" standalone="no"?>
<!DOCTYPE svg PUBLIC "-//W3C//DTD SVG 20010904//EN"
 "http://www.w3.org/TR/2001/REC-SVG-20010904/DTD/svg10.dtd">
<svg version="1.0" xmlns="http://www.w3.org/2000/svg"
 width="64.000000pt" height="64.000000pt" viewBox="0 0 64.000000 64.000000"
 preserveAspectRatio="xMidYMid meet">

<g transform="translate(0.000000,64.000000) scale(0.100000,-0.100000)"
fill="#de3139" stroke="none">
<path d="M120 485 l0 -155 -37 0 c-21 0 -43 -4 -49 -8 -15 -10 -34 -47 -34
-67 0 -25 46 -65 75 -65 14 0 37 11 50 25 25 24 25 27 25 187 l0 162 55 -54
c46 -46 55 -60 53 -85 -2 -23 -11 -34 -35 -45 -33 -15 -45 -40 -19 -40 56 0
103 57 91 111 -4 18 -25 45 -55 70 -27 23 -60 59 -74 80 -15 21 -31 39 -36 39
-6 0 -10 -60 -10 -155z m-15 -219 c0 -36 -26 -56 -49 -37 -16 14 -22 52 -9 65
4 4 19 6 33 4 20 -2 25 -8 25 -32z"/>
<path d="M463 442 l-123 -36 0 -133 0 -133 -28 6 c-69 14 -112 -81 -56 -125
34 -26 54 -26 88 0 26 20 26 22 26 153 l0 133 112 31 c62 16 116 28 120 26 5
-3 8 -36 8 -75 l0 -69 -39 0 c-31 0 -44 -6 -60 -26 -26 -34 -26 -54 0 -88 15
-19 30 -26 54 -26 24 0 39 7 54 26 19 25 21 40 21 200 l0 174 -27 -1 c-16 -1
-83 -17 -150 -37z m145 -19 c-2 -12 -31 -25 -98 -45 -146 -42 -140 -41 -140
-19 0 16 14 24 73 41 39 12 83 25 97 30 43 15 72 12 68 -7z m-24 -239 c21 -8
21 -60 0 -68 -30 -12 -54 3 -54 34 0 34 21 47 54 34z m-249 -94 c8 -26 -11
-50 -40 -50 -25 0 -39 23 -30 51 9 27 61 26 70 -1z"/>
</g>
</svg>
