<?xml version="1.0" standalone="no"?>
<!DOCTYPE svg PUBLIC "-//W3C//DTD SVG 20010904//EN"
 "http://www.w3.org/TR/2001/REC-SVG-20010904/DTD/svg10.dtd">
<svg version="1.0" xmlns="http://www.w3.org/2000/svg"
 width="64.000000pt" height="64.000000pt" viewBox="0 0 64.000000 64.000000"
 preserveAspectRatio="xMidYMid meet">

<g transform="translate(0.000000,64.000000) scale(0.100000,-0.100000)"
fill="#de3139" stroke="none">
<path d="M393 628 c-4 -7 -9 -36 -10 -65 -5 -129 -59 -232 -110 -212 -13 4
-23 15 -23 24 0 18 -12 19 -28 3 -17 -17 -15 -39 3 -32 15 6 16 4 19 -31 1
-22 -3 -25 -34 -25 -13 0 -20 7 -20 20 0 23 -10 26 -28 8 -14 -14 -16 -42 -2
-33 11 7 33 -42 25 -54 -9 -16 -55 1 -55 21 0 16 -3 17 -20 8 -23 -12 -27 -40
-6 -40 7 0 16 -10 20 -22 4 -18 -6 -34 -46 -75 -29 -29 -57 -49 -64 -46 -24 9
-15 -12 19 -45 35 -34 53 -41 44 -18 -3 8 4 23 16 34 l22 20 35 -29 c37 -32
60 -36 93 -17 12 7 33 13 47 13 21 0 26 5 28 33 2 24 7 32 18 28 26 -10 44 5
44 36 0 23 4 29 15 24 26 -10 45 5 45 34 0 16 5 32 10 35 19 12 10 68 -15 101
l-26 33 23 6 c49 11 153 22 171 17 18 -5 36 12 37 32 0 14 -212 226 -226 226
-7 0 -16 -6 -21 -12z m224 -225 c-10 -9 -218 198 -210 210 3 5 53 -38 111 -96
59 -59 103 -110 99 -114z m-57 6 c0 -4 -32 -10 -70 -13 -59 -6 -77 -13 -116
-42 -49 -38 -71 -38 -37 -1 32 34 50 77 58 132 11 84 10 84 90 5 41 -41 75
-77 75 -81z m-140 -96 c22 -28 24 -74 3 -80 -7 -3 -11 7 -11 26 1 17 -6 39
-15 49 -10 10 -17 22 -17 25 0 15 20 5 40 -20z m-57 -61 c84 -89 69 -99 -18
-12 -41 41 -75 78 -75 83 0 16 36 -12 93 -71z m15 46 c7 -7 12 -19 12 -27 0
-11 -4 -10 -20 4 -21 19 -26 35 -12 35 4 0 13 -5 20 -12z m-103 -28 c3 -5 1
-10 -4 -10 -6 0 -11 5 -11 10 0 6 2 10 4 10 3 0 8 -4 11 -10z m82 -156 c-9 -9
-147 126 -147 145 0 9 33 -17 77 -61 42 -43 74 -80 70 -84z m-23 84 c-8 -12
-44 21 -44 40 0 12 6 10 25 -8 13 -12 22 -27 19 -32z m-120 1 c-3 -5 -10 -7
-15 -3 -5 3 -7 10 -3 15 3 5 10 7 15 3 5 -3 7 -10 3 -15z m83 -146 c-10 -9
-147 127 -147 147 0 8 35 -20 77 -62 42 -43 74 -81 70 -85z m-23 85 c-8 -12
-44 21 -44 40 0 12 6 10 25 -8 13 -12 22 -27 19 -32z m91 43 c3 -5 1 -12 -5
-16 -5 -3 -10 1 -10 9 0 18 6 21 15 7z m-212 -51 c-3 -11 2 -32 12 -46 13 -21
23 -25 46 -22 39 6 47 -9 14 -24 -22 -10 -30 -8 -53 9 -38 28 -56 67 -42 93
13 25 30 18 23 -10z m56 -49 c-7 -2 -18 4 -26 15 -22 30 -15 39 13 13 16 -15
21 -25 13 -28z m96 40 c3 -5 1 -12 -5 -16 -5 -3 -10 1 -10 9 0 18 6 21 15 7z
m-221 -52 c-15 -15 -31 -26 -36 -23 -5 4 3 19 18 35 15 15 31 26 36 23 5 -4
-3 -19 -18 -35z"/>
</g>
</svg>
